<svg width="1675" height="43" viewBox="0 0 1675 43" fill="none" xmlns="http://www.w3.org/2000/svg">
<path d="M96.7092 42.712L108.681 15.8306H112.452L100.744 42.712H96.7092ZM101.182 34.117L92.4555 15.8306H97.06L104.383 32.0559L101.182 34.117Z" fill="black"/>
<path d="M79.6534 34.424C77.9578 34.424 76.4083 34.0586 75.005 33.3277C73.631 32.5969 72.5347 31.5298 71.7161 30.1265C70.9268 28.694 70.5321 26.9545 70.5321 24.9081C70.5321 22.8909 70.956 21.1514 71.8038 19.6897C72.6516 18.1987 73.7772 17.0586 75.1804 16.2692C76.6129 15.4799 78.177 15.0852 79.8726 15.0852C81.5683 15.0852 83.0008 15.4799 84.1702 16.2692C85.3395 17.0293 86.2312 17.9356 86.8451 18.9881L86.582 19.6897L86.9767 15.8307H90.748V33.9855H86.6697V29.2495L87.1083 30.3019C86.9913 30.5943 86.7282 30.9743 86.3189 31.4421C85.9389 31.8806 85.4126 32.3338 84.7402 32.8015C84.0971 33.2693 83.3516 33.6639 82.5038 33.9855C81.656 34.2779 80.7058 34.424 79.6534 34.424ZM80.7497 31.0474C81.7729 31.0474 82.6938 30.8574 83.5124 30.4773C84.3309 30.0973 85.0033 29.5711 85.5296 28.8987C86.085 28.197 86.4651 27.3638 86.6697 26.3991V22.8471C86.4359 21.97 86.0266 21.2099 85.4419 20.5667C84.8572 19.8943 84.1555 19.3827 83.337 19.0319C82.5184 18.6519 81.6121 18.4618 80.6181 18.4618C79.5364 18.4618 78.5424 18.7249 77.6362 19.2512C76.7299 19.7774 75.999 20.5083 75.4436 21.4438C74.9173 22.3793 74.6542 23.4756 74.6542 24.7327C74.6542 25.9021 74.9319 26.9692 75.4874 27.9339C76.0429 28.8987 76.7884 29.6588 77.7239 30.2142C78.6594 30.7697 79.668 31.0474 80.7497 31.0474Z" fill="black"/>
<path d="M53.2012 33.9856V0.0439453H57.2795V33.9856H53.2012ZM61.6647 21.9262L69.9966 33.9856H65.2167L58.9458 24.2065L61.6647 21.9262ZM56.0078 28.1971L55.6131 24.2942L66.62 15.4361L69.1196 17.5848L56.0078 28.1971Z" fill="black"/>
<path d="M43.0613 34.3364C41.775 34.3364 40.5179 34.1171 39.29 33.6786C38.0914 33.2108 37.0974 32.5238 36.3081 31.6175L38.0183 29.2495C38.7784 29.9804 39.5531 30.5358 40.3425 30.9159C41.1611 31.2667 41.965 31.4421 42.7544 31.4421C43.3391 31.4421 43.8799 31.369 44.3769 31.2229C44.8739 31.0767 45.2686 30.8428 45.5609 30.5212C45.8825 30.1704 46.0433 29.7027 46.0433 29.118C46.0433 28.4748 45.824 27.9632 45.3855 27.5831C44.9762 27.2031 44.4354 26.8961 43.763 26.6622C43.1198 26.4284 42.4328 26.2091 41.7019 26.0044C40.2109 25.5075 39.0708 24.8204 38.2814 23.9434C37.4921 23.0663 37.0974 21.9993 37.0974 20.7422C37.0974 19.7774 37.3313 18.8858 37.7991 18.0672C38.296 17.2194 39.0123 16.5324 39.9478 16.0061C40.9126 15.4799 42.0966 15.2168 43.4998 15.2168C44.7569 15.2168 45.8825 15.3776 46.8765 15.6992C47.8705 15.9915 48.806 16.4885 49.683 17.1901L48.0605 19.7336C47.5343 19.1781 46.9057 18.7688 46.1748 18.5057C45.444 18.2426 44.7862 18.0964 44.2015 18.0672C43.7045 18.038 43.2221 18.111 42.7544 18.2865C42.3158 18.4619 41.9504 18.7104 41.6581 19.0319C41.3657 19.3535 41.2195 19.7336 41.2195 20.1721C41.2195 20.786 41.4242 21.283 41.8335 21.6631C42.2427 22.0431 42.769 22.3501 43.4121 22.584C44.0845 22.7886 44.7423 23.0079 45.3855 23.2418C46.2918 23.5049 47.0957 23.8557 47.7974 24.2942C48.499 24.7327 49.0545 25.2736 49.4638 25.9167C49.9023 26.5599 50.1215 27.3639 50.1215 28.3286C50.1215 29.4103 49.8584 30.4189 49.3322 31.3544C48.8352 32.2607 48.0605 32.9916 47.008 33.547C45.9848 34.0733 44.6692 34.3364 43.0613 34.3364Z" fill="black"/>
<path d="M29.4713 15.8306H33.5495V33.9854H29.4713V15.8306ZM29.1643 9.25273C29.1643 8.60956 29.4128 8.06872 29.9098 7.6302C30.436 7.19167 31.0061 6.97241 31.62 6.97241C32.234 6.97241 32.7748 7.19167 33.2426 7.6302C33.7396 8.06872 33.9881 8.60956 33.9881 9.25273C33.9881 9.92513 33.7396 10.4806 33.2426 10.9191C32.7748 11.3284 32.234 11.533 31.62 11.533C31.0061 11.533 30.436 11.3138 29.9098 10.8753C29.4128 10.4367 29.1643 9.8959 29.1643 9.25273Z" fill="black"/>
<path d="M19.2546 15.8305L19.6493 21.0928L19.43 20.3912C19.8978 19.2803 20.5702 18.3447 21.4472 17.5846C22.3535 16.7953 23.289 16.196 24.2538 15.7867C25.2478 15.3482 26.1102 15.1289 26.8411 15.1289L26.6218 19.1633C25.2478 19.0756 24.0345 19.3387 22.9821 19.9527C21.9589 20.5666 21.1403 21.3852 20.5264 22.4084C19.9417 23.4316 19.6493 24.5279 19.6493 25.6973V33.9854H15.6149V15.8305H19.2546Z" fill="black"/>
<path d="M3.1212 33.9855V19.4704H0.00769043V15.8307H3.1212V8.15652C3.1212 5.52538 3.7059 3.50818 4.87529 2.10491C6.07392 0.701636 7.82801 0 10.1376 0C10.7515 0 11.4239 0.0877042 12.1548 0.263113C12.9149 0.438523 13.5727 0.730872 14.1281 1.14016L12.4179 4.07826C12.1548 3.81515 11.8624 3.63974 11.5408 3.55203C11.2192 3.43509 10.8977 3.37662 10.5761 3.37662C9.49439 3.37662 8.6612 3.74206 8.07651 4.47293C7.49181 5.2038 7.19946 6.44628 7.19946 8.20037V15.8307H12.9441V19.4704H7.19946V33.9855H3.1212Z" fill="black"/>
<line x1="158.952" y1="0.602295" x2="158.952" y2="42.11" stroke="#C9C9C9"/>
<path d="M206.39 34.4241V18.4241H208.327V25.5491H216.858V18.4241H218.796V34.4241H216.858V27.2678H208.327V34.4241H206.39ZM227.3 34.6741C226.216 34.6741 225.266 34.4163 224.448 33.9006C223.636 33.385 223 32.6637 222.542 31.7366C222.089 30.8095 221.862 29.7262 221.862 28.4866C221.862 27.2366 222.089 26.1454 222.542 25.2131C223 24.2808 223.636 23.5569 224.448 23.0413C225.266 22.5256 226.216 22.2678 227.3 22.2678C228.383 22.2678 229.331 22.5256 230.143 23.0413C230.961 23.5569 231.597 24.2808 232.05 25.2131C232.508 26.1454 232.737 27.2366 232.737 28.4866C232.737 29.7262 232.508 30.8095 232.05 31.7366C231.597 32.6637 230.961 33.385 230.143 33.9006C229.331 34.4163 228.383 34.6741 227.3 34.6741ZM227.3 33.0178C228.123 33.0178 228.8 32.8069 229.331 32.385C229.862 31.9631 230.255 31.4084 230.511 30.7209C230.766 30.0334 230.893 29.2887 230.893 28.4866C230.893 27.6845 230.766 26.9371 230.511 26.2444C230.255 25.5517 229.862 24.9918 229.331 24.5647C228.8 24.1376 228.123 23.9241 227.3 23.9241C226.477 23.9241 225.8 24.1376 225.268 24.5647C224.737 24.9918 224.344 25.5517 224.089 26.2444C223.834 26.9371 223.706 27.6845 223.706 28.4866C223.706 29.2887 223.834 30.0334 224.089 30.7209C224.344 31.4084 224.737 31.9631 225.268 32.385C225.8 32.8069 226.477 33.0178 227.3 33.0178ZM235.552 34.4241V22.4241H237.333V24.2991H237.489C237.739 23.6584 238.143 23.1611 238.7 22.8069C239.257 22.4475 239.927 22.2678 240.708 22.2678C241.5 22.2678 242.158 22.4475 242.684 22.8069C243.216 23.1611 243.63 23.6584 243.927 24.2991H244.052C244.359 23.6793 244.82 23.1871 245.434 22.8225C246.049 22.4527 246.786 22.2678 247.645 22.2678C248.718 22.2678 249.596 22.6038 250.278 23.2756C250.96 23.9423 251.302 24.9814 251.302 26.3928V34.4241H249.458V26.3928C249.458 25.5074 249.216 24.8746 248.731 24.4944C248.247 24.1142 247.677 23.9241 247.02 23.9241C246.177 23.9241 245.523 24.1793 245.059 24.6897C244.596 25.1949 244.364 25.8355 244.364 26.6116V34.4241H242.489V26.2053C242.489 25.523 242.268 24.9736 241.825 24.5569C241.382 24.135 240.812 23.9241 240.114 23.9241C239.635 23.9241 239.187 24.0517 238.77 24.3069C238.359 24.5621 238.026 24.9163 237.77 25.3694C237.52 25.8173 237.395 26.3355 237.395 26.9241V34.4241H235.552ZM259.704 34.6741C258.548 34.6741 257.55 34.4189 256.712 33.9084C255.878 33.3928 255.235 32.6741 254.782 31.7522C254.334 30.8251 254.11 29.747 254.11 28.5178C254.11 27.2887 254.334 26.2053 254.782 25.2678C255.235 24.3251 255.865 23.5907 256.673 23.0647C257.485 22.5334 258.433 22.2678 259.516 22.2678C260.141 22.2678 260.759 22.372 261.368 22.5803C261.977 22.7887 262.532 23.1272 263.032 23.5959C263.532 24.0595 263.931 24.6741 264.227 25.4397C264.524 26.2053 264.673 27.148 264.673 28.2678V29.0491H255.423V27.4553H262.798C262.798 26.7782 262.662 26.1741 262.391 25.6428C262.126 25.1116 261.746 24.6923 261.251 24.385C260.761 24.0777 260.183 23.9241 259.516 23.9241C258.782 23.9241 258.147 24.1064 257.61 24.4709C257.079 24.8303 256.67 25.2991 256.384 25.8772C256.097 26.4553 255.954 27.0751 255.954 27.7366V28.7991C255.954 29.7053 256.11 30.4736 256.423 31.1038C256.74 31.7288 257.181 32.2053 257.743 32.5334C258.306 32.8564 258.959 33.0178 259.704 33.0178C260.188 33.0178 260.626 32.9501 261.016 32.8147C261.412 32.6741 261.753 32.4657 262.04 32.1897C262.326 31.9084 262.548 31.5595 262.704 31.1428L264.485 31.6428C264.298 32.247 263.983 32.7782 263.54 33.2366C263.097 33.6897 262.55 34.0439 261.899 34.2991C261.248 34.5491 260.516 34.6741 259.704 34.6741Z" fill="black"/>
<path d="M1195.55 21.856C1195.55 23.6007 1195.22 25.0851 1194.55 26.3091C1193.9 27.533 1193 28.4679 1191.87 29.1138C1190.74 29.7544 1189.47 30.0747 1188.05 30.0747C1186.63 30.0747 1185.36 29.7518 1184.23 29.106C1183.1 28.4601 1182.2 27.5252 1181.55 26.3013C1180.89 25.0773 1180.56 23.5955 1180.56 21.856C1180.56 20.1112 1180.89 18.6268 1181.55 17.4028C1182.2 16.1789 1183.1 15.2466 1184.23 14.606C1185.36 13.9601 1186.63 13.6372 1188.05 13.6372C1189.47 13.6372 1190.74 13.9601 1191.87 14.606C1193 15.2466 1193.9 16.1789 1194.55 17.4028C1195.22 18.6268 1195.55 20.1112 1195.55 21.856ZM1192.12 21.856C1192.12 20.7257 1191.95 19.7726 1191.61 18.9966C1191.27 18.2205 1190.8 17.632 1190.19 17.231C1189.58 16.8299 1188.87 16.6294 1188.05 16.6294C1187.24 16.6294 1186.52 16.8299 1185.91 17.231C1185.3 17.632 1184.83 18.2205 1184.49 18.9966C1184.16 19.7726 1183.99 20.7257 1183.99 21.856C1183.99 22.9862 1184.16 23.9393 1184.49 24.7153C1184.83 25.4914 1185.3 26.0799 1185.91 26.481C1186.52 26.882 1187.24 27.0825 1188.05 27.0825C1188.87 27.0825 1189.58 26.882 1190.19 26.481C1190.8 26.0799 1191.27 25.4914 1191.61 24.7153C1191.95 23.9393 1192.12 22.9862 1192.12 21.856ZM1205.68 24.7466V17.856H1209.01V29.856H1205.82V27.6763H1205.69C1205.42 28.3794 1204.97 28.9445 1204.34 29.3716C1203.72 29.7987 1202.95 30.0122 1202.05 30.0122C1201.25 30.0122 1200.54 29.8299 1199.93 29.4653C1199.33 29.1007 1198.85 28.5825 1198.5 27.9106C1198.17 27.2388 1197.99 26.4341 1197.99 25.4966V17.856H1201.32V24.9028C1201.32 25.6112 1201.51 26.1711 1201.89 26.5825C1202.26 26.994 1202.77 27.1997 1203.4 27.1997C1203.8 27.1997 1204.17 27.1086 1204.52 26.9263C1204.87 26.7388 1205.15 26.4627 1205.36 26.0981C1205.58 25.7336 1205.69 25.283 1205.68 24.7466ZM1211.67 29.856V17.856H1214.9V19.9497H1215.03C1215.24 19.2049 1215.61 18.6424 1216.13 18.2622C1216.64 17.8768 1217.24 17.6841 1217.91 17.6841C1218.08 17.6841 1218.26 17.6945 1218.45 17.7153C1218.64 17.7362 1218.81 17.7648 1218.96 17.8013V20.7544C1218.8 20.7075 1218.58 20.6659 1218.31 20.6294C1218.03 20.5929 1217.78 20.5747 1217.55 20.5747C1217.06 20.5747 1216.62 20.6815 1216.24 20.895C1215.86 21.1034 1215.55 21.395 1215.33 21.77C1215.11 22.145 1215 22.5773 1215 23.0669V29.856H1211.67ZM1225.83 29.856V13.856H1236.42V16.645H1229.21V20.4575H1235.72V23.2466H1229.21V29.856H1225.83ZM1243.18 30.0903C1241.97 30.0903 1240.92 29.8325 1240.03 29.3169C1239.15 28.7961 1238.47 28.0721 1237.99 27.145C1237.51 26.2127 1237.27 25.132 1237.27 23.9028C1237.27 22.6632 1237.51 21.5799 1237.99 20.6528C1238.47 19.7205 1239.15 18.9966 1240.03 18.481C1240.92 17.9601 1241.97 17.6997 1243.18 17.6997C1244.39 17.6997 1245.44 17.9601 1246.32 18.481C1247.2 18.9966 1247.89 19.7205 1248.37 20.6528C1248.85 21.5799 1249.08 22.6632 1249.08 23.9028C1249.08 25.132 1248.85 26.2127 1248.37 27.145C1247.89 28.0721 1247.2 28.7961 1246.32 29.3169C1245.44 29.8325 1244.39 30.0903 1243.18 30.0903ZM1243.19 27.5122C1243.75 27.5122 1244.21 27.356 1244.58 27.0435C1244.95 26.7257 1245.23 26.2935 1245.41 25.7466C1245.61 25.1997 1245.7 24.5773 1245.7 23.8794C1245.7 23.1815 1245.61 22.5591 1245.41 22.0122C1245.23 21.4653 1244.95 21.033 1244.58 20.7153C1244.21 20.3976 1243.75 20.2388 1243.19 20.2388C1242.64 20.2388 1242.17 20.3976 1241.79 20.7153C1241.41 21.033 1241.13 21.4653 1240.94 22.0122C1240.75 22.5591 1240.66 23.1815 1240.66 23.8794C1240.66 24.5773 1240.75 25.1997 1240.94 25.7466C1241.13 26.2935 1241.41 26.7257 1241.79 27.0435C1242.17 27.356 1242.64 27.5122 1243.19 27.5122ZM1256.67 30.0903C1255.46 30.0903 1254.41 29.8325 1253.52 29.3169C1252.64 28.7961 1251.96 28.0721 1251.48 27.145C1251 26.2127 1250.76 25.132 1250.76 23.9028C1250.76 22.6632 1251 21.5799 1251.48 20.6528C1251.96 19.7205 1252.64 18.9966 1253.52 18.481C1254.41 17.9601 1255.46 17.6997 1256.67 17.6997C1257.88 17.6997 1258.93 17.9601 1259.81 18.481C1260.7 18.9966 1261.38 19.7205 1261.86 20.6528C1262.34 21.5799 1262.58 22.6632 1262.58 23.9028C1262.58 25.132 1262.34 26.2127 1261.86 27.145C1261.38 28.0721 1260.7 28.7961 1259.81 29.3169C1258.93 29.8325 1257.88 30.0903 1256.67 30.0903ZM1256.69 27.5122C1257.24 27.5122 1257.7 27.356 1258.07 27.0435C1258.44 26.7257 1258.72 26.2935 1258.91 25.7466C1259.1 25.1997 1259.19 24.5773 1259.19 23.8794C1259.19 23.1815 1259.1 22.5591 1258.91 22.0122C1258.72 21.4653 1258.44 21.033 1258.07 20.7153C1257.7 20.3976 1257.24 20.2388 1256.69 20.2388C1256.13 20.2388 1255.66 20.3976 1255.28 20.7153C1254.91 21.033 1254.62 21.4653 1254.43 22.0122C1254.24 22.5591 1254.15 23.1815 1254.15 23.8794C1254.15 24.5773 1254.24 25.1997 1254.43 25.7466C1254.62 26.2935 1254.91 26.7257 1255.28 27.0435C1255.66 27.356 1256.13 27.5122 1256.69 27.5122ZM1269.16 30.0513C1268.25 30.0513 1267.43 29.8169 1266.69 29.3481C1265.95 28.8742 1265.37 28.1789 1264.94 27.2622C1264.51 26.3403 1264.3 25.2101 1264.3 23.8716C1264.3 22.4966 1264.52 21.3534 1264.96 20.4419C1265.4 19.5252 1265.99 18.8403 1266.73 18.3872C1267.47 17.9289 1268.27 17.6997 1269.16 17.6997C1269.83 17.6997 1270.39 17.8143 1270.83 18.0435C1271.29 18.2674 1271.65 18.5487 1271.93 18.8872C1272.21 19.2205 1272.42 19.5487 1272.57 19.8716H1272.67V13.856H1275.99V29.856H1272.71V27.9341H1272.57C1272.41 28.2674 1272.19 28.5981 1271.91 28.9263C1271.62 29.2492 1271.26 29.5174 1270.8 29.731C1270.36 29.9445 1269.81 30.0513 1269.16 30.0513ZM1270.22 27.4028C1270.75 27.4028 1271.21 27.257 1271.58 26.9653C1271.95 26.6685 1272.24 26.2544 1272.44 25.7231C1272.64 25.1919 1272.74 24.5695 1272.74 23.856C1272.74 23.1424 1272.64 22.5226 1272.44 21.9966C1272.25 21.4705 1271.96 21.0643 1271.58 20.7778C1271.21 20.4914 1270.75 20.3481 1270.22 20.3481C1269.67 20.3481 1269.21 20.4966 1268.83 20.7935C1268.46 21.0903 1268.18 21.5018 1267.98 22.0278C1267.79 22.5539 1267.69 23.1632 1267.69 23.856C1267.69 24.5539 1267.79 25.1711 1267.98 25.7075C1268.18 26.2388 1268.47 26.6554 1268.83 26.9575C1269.21 27.2544 1269.67 27.4028 1270.22 27.4028Z" fill="black"/>
<path d="M1331.23 13.856V29.856H1327.84V13.856H1331.23ZM1337.27 22.9185V29.856H1333.95V17.856H1337.12V19.9731H1337.26C1337.52 19.2752 1337.97 18.7231 1338.59 18.3169C1339.22 17.9054 1339.98 17.6997 1340.87 17.6997C1341.7 17.6997 1342.43 17.882 1343.05 18.2466C1343.67 18.6112 1344.15 19.132 1344.49 19.8091C1344.84 20.481 1345.01 21.283 1345.01 22.2153V29.856H1341.68V22.8091C1341.69 22.0747 1341.5 21.5018 1341.12 21.0903C1340.74 20.6737 1340.21 20.4653 1339.55 20.4653C1339.1 20.4653 1338.7 20.5617 1338.36 20.7544C1338.02 20.9471 1337.76 21.2284 1337.56 21.5981C1337.38 21.9627 1337.28 22.4028 1337.27 22.9185ZM1353.04 34.606C1351.96 34.606 1351.04 34.4575 1350.26 34.1606C1349.5 33.869 1348.89 33.4705 1348.44 32.9653C1347.98 32.4601 1347.69 31.8924 1347.55 31.2622L1350.63 30.8481C1350.73 31.0877 1350.87 31.3117 1351.08 31.52C1351.28 31.7284 1351.55 31.895 1351.88 32.02C1352.22 32.1502 1352.63 32.2153 1353.12 32.2153C1353.84 32.2153 1354.44 32.0382 1354.91 31.6841C1355.38 31.3351 1355.62 30.7492 1355.62 29.9263V27.731H1355.48C1355.33 28.0643 1355.11 28.3794 1354.82 28.6763C1354.53 28.9731 1354.15 29.2153 1353.69 29.4028C1353.24 29.5903 1352.69 29.6841 1352.05 29.6841C1351.15 29.6841 1350.33 29.4757 1349.59 29.0591C1348.86 28.6372 1348.27 27.994 1347.83 27.1294C1347.4 26.2596 1347.19 25.1606 1347.19 23.8325C1347.19 22.4731 1347.41 21.3377 1347.85 20.4263C1348.29 19.5148 1348.88 18.8325 1349.62 18.3794C1350.36 17.9263 1351.17 17.6997 1352.05 17.6997C1352.72 17.6997 1353.28 17.8143 1353.73 18.0435C1354.19 18.2674 1354.55 18.5487 1354.83 18.8872C1355.11 19.2205 1355.32 19.5487 1355.48 19.8716H1355.6V17.856H1358.91V29.9731C1358.91 30.994 1358.66 31.8481 1358.16 32.5356C1357.66 33.2231 1356.96 33.7388 1356.08 34.0825C1355.2 34.4315 1354.18 34.606 1353.04 34.606ZM1353.11 27.1841C1353.64 27.1841 1354.1 27.0513 1354.47 26.7856C1354.84 26.5148 1355.13 26.1294 1355.33 25.6294C1355.53 25.1242 1355.63 24.52 1355.63 23.8169C1355.63 23.1138 1355.53 22.5044 1355.33 21.9888C1355.14 21.4679 1354.85 21.0643 1354.48 20.7778C1354.1 20.4914 1353.64 20.3481 1353.11 20.3481C1352.56 20.3481 1352.1 20.4966 1351.73 20.7935C1351.35 21.0851 1351.07 21.4914 1350.87 22.0122C1350.68 22.533 1350.58 23.1346 1350.58 23.8169C1350.58 24.5096 1350.68 25.1086 1350.87 25.6138C1351.07 26.1138 1351.36 26.5018 1351.73 26.7778C1352.1 27.0487 1352.56 27.1841 1353.11 27.1841ZM1361.55 29.856V17.856H1364.78V19.9497H1364.91C1365.12 19.2049 1365.49 18.6424 1366.01 18.2622C1366.52 17.8768 1367.12 17.6841 1367.79 17.6841C1367.95 17.6841 1368.13 17.6945 1368.33 17.7153C1368.52 17.7362 1368.69 17.7648 1368.83 17.8013V20.7544C1368.68 20.7075 1368.46 20.6659 1368.19 20.6294C1367.91 20.5929 1367.66 20.5747 1367.43 20.5747C1366.94 20.5747 1366.5 20.6815 1366.12 20.895C1365.74 21.1034 1365.43 21.395 1365.21 21.77C1364.99 22.145 1364.88 22.5773 1364.88 23.0669V29.856H1361.55ZM1375.47 30.0903C1374.23 30.0903 1373.17 29.8403 1372.28 29.3403C1371.39 28.8351 1370.71 28.1216 1370.23 27.1997C1369.75 26.2726 1369.51 25.1763 1369.51 23.9106C1369.51 22.6763 1369.75 21.5929 1370.23 20.6606C1370.71 19.7284 1371.38 19.0018 1372.25 18.481C1373.13 17.9601 1374.16 17.6997 1375.33 17.6997C1376.12 17.6997 1376.86 17.8273 1377.54 18.0825C1378.23 18.3325 1378.83 18.7101 1379.34 19.2153C1379.86 19.7205 1380.26 20.356 1380.54 21.1216C1380.83 21.882 1380.97 22.7726 1380.97 23.7935V24.7075H1370.84V22.645H1377.84C1377.84 22.1659 1377.74 21.7414 1377.53 21.3716C1377.32 21.0018 1377.03 20.7127 1376.66 20.5044C1376.3 20.2909 1375.87 20.1841 1375.39 20.1841C1374.88 20.1841 1374.43 20.3013 1374.04 20.5356C1373.66 20.7648 1373.36 21.0747 1373.14 21.4653C1372.92 21.8507 1372.81 22.2804 1372.8 22.7544V24.7153C1372.8 25.3091 1372.91 25.8221 1373.13 26.2544C1373.35 26.6867 1373.67 27.02 1374.08 27.2544C1374.48 27.4888 1374.96 27.606 1375.52 27.606C1375.89 27.606 1376.23 27.5539 1376.54 27.4497C1376.84 27.3455 1377.11 27.1893 1377.33 26.981C1377.54 26.7726 1377.71 26.5174 1377.83 26.2153L1380.9 26.4185C1380.75 27.158 1380.43 27.8039 1379.94 28.356C1379.46 28.9028 1378.84 29.3299 1378.08 29.6372C1377.33 29.9393 1376.46 30.0903 1375.47 30.0903ZM1387.57 30.0513C1386.66 30.0513 1385.83 29.8169 1385.09 29.3481C1384.36 28.8742 1383.77 28.1789 1383.34 27.2622C1382.91 26.3403 1382.7 25.2101 1382.7 23.8716C1382.7 22.4966 1382.92 21.3534 1383.36 20.4419C1383.81 19.5252 1384.4 18.8403 1385.13 18.3872C1385.87 17.9289 1386.68 17.6997 1387.56 17.6997C1388.23 17.6997 1388.79 17.8143 1389.24 18.0435C1389.69 18.2674 1390.06 18.5487 1390.33 18.8872C1390.61 19.2205 1390.83 19.5487 1390.97 19.8716H1391.08V13.856H1394.4V29.856H1391.11V27.9341H1390.97C1390.82 28.2674 1390.6 28.5981 1390.31 28.9263C1390.03 29.2492 1389.66 29.5174 1389.21 29.731C1388.76 29.9445 1388.21 30.0513 1387.57 30.0513ZM1388.62 27.4028C1389.16 27.4028 1389.61 27.257 1389.98 26.9653C1390.36 26.6685 1390.64 26.2544 1390.84 25.7231C1391.04 25.1919 1391.15 24.5695 1391.15 23.856C1391.15 23.1424 1391.05 22.5226 1390.85 21.9966C1390.65 21.4705 1390.36 21.0643 1389.99 20.7778C1389.61 20.4914 1389.16 20.3481 1388.62 20.3481C1388.08 20.3481 1387.61 20.4966 1387.24 20.7935C1386.86 21.0903 1386.58 21.5018 1386.39 22.0278C1386.19 22.5539 1386.1 23.1632 1386.1 23.856C1386.1 24.5539 1386.19 25.1711 1386.39 25.7075C1386.59 26.2388 1386.87 26.6554 1387.24 26.9575C1387.61 27.2544 1388.08 27.4028 1388.62 27.4028ZM1397.13 29.856V17.856H1400.46V29.856H1397.13ZM1398.8 16.3091C1398.31 16.3091 1397.88 16.145 1397.53 15.8169C1397.18 15.4836 1397.01 15.0851 1397.01 14.6216C1397.01 14.1632 1397.18 13.77 1397.53 13.4419C1397.88 13.1086 1398.31 12.9419 1398.8 12.9419C1399.3 12.9419 1399.72 13.1086 1400.07 13.4419C1400.42 13.77 1400.6 14.1632 1400.6 14.6216C1400.6 15.0851 1400.42 15.4836 1400.07 15.8169C1399.72 16.145 1399.3 16.3091 1398.8 16.3091ZM1408.59 30.0903C1407.36 30.0903 1406.3 29.8403 1405.41 29.3403C1404.52 28.8351 1403.84 28.1216 1403.36 27.1997C1402.88 26.2726 1402.64 25.1763 1402.64 23.9106C1402.64 22.6763 1402.88 21.5929 1403.36 20.6606C1403.84 19.7284 1404.51 19.0018 1405.38 18.481C1406.26 17.9601 1407.28 17.6997 1408.46 17.6997C1409.25 17.6997 1409.99 17.8273 1410.67 18.0825C1411.36 18.3325 1411.96 18.7101 1412.47 19.2153C1412.99 19.7205 1413.39 20.356 1413.67 21.1216C1413.96 21.882 1414.1 22.7726 1414.1 23.7935V24.7075H1403.97V22.645H1410.97C1410.97 22.1659 1410.87 21.7414 1410.66 21.3716C1410.45 21.0018 1410.16 20.7127 1409.79 20.5044C1409.43 20.2909 1409 20.1841 1408.52 20.1841C1408.01 20.1841 1407.56 20.3013 1407.17 20.5356C1406.79 20.7648 1406.49 21.0747 1406.27 21.4653C1406.05 21.8507 1405.94 22.2804 1405.93 22.7544V24.7153C1405.93 25.3091 1406.04 25.8221 1406.26 26.2544C1406.48 26.6867 1406.8 27.02 1407.2 27.2544C1407.61 27.4888 1408.09 27.606 1408.65 27.606C1409.02 27.606 1409.36 27.5539 1409.66 27.4497C1409.97 27.3455 1410.24 27.1893 1410.45 26.981C1410.67 26.7726 1410.84 26.5174 1410.95 26.2153L1414.03 26.4185C1413.88 27.158 1413.56 27.8039 1413.07 28.356C1412.59 28.9028 1411.97 29.3299 1411.21 29.6372C1410.46 29.9393 1409.58 30.0903 1408.59 30.0903ZM1419.6 22.9185V29.856H1416.27V17.856H1419.45V19.9731H1419.59C1419.85 19.2752 1420.3 18.7231 1420.92 18.3169C1421.55 17.9054 1422.31 17.6997 1423.2 17.6997C1424.03 17.6997 1424.76 17.882 1425.38 18.2466C1426 18.6112 1426.48 19.132 1426.82 19.8091C1427.16 20.481 1427.34 21.283 1427.34 22.2153V29.856H1424.01V22.8091C1424.01 22.0747 1423.83 21.5018 1423.45 21.0903C1423.07 20.6737 1422.54 20.4653 1421.88 20.4653C1421.43 20.4653 1421.03 20.5617 1420.69 20.7544C1420.35 20.9471 1420.08 21.2284 1419.89 21.5981C1419.7 21.9627 1419.61 22.4028 1419.6 22.9185ZM1436.34 17.856V20.356H1429.12V17.856H1436.34ZM1430.76 14.981H1434.08V26.1685C1434.08 26.4757 1434.13 26.7153 1434.23 26.8872C1434.32 27.0539 1434.45 27.1711 1434.62 27.2388C1434.79 27.3065 1434.99 27.3403 1435.21 27.3403C1435.37 27.3403 1435.52 27.3273 1435.68 27.3013C1435.83 27.27 1435.95 27.2466 1436.04 27.231L1436.56 29.7075C1436.39 29.7596 1436.16 29.8195 1435.86 29.8872C1435.56 29.9601 1435.19 30.0044 1434.76 30.02C1433.95 30.0513 1433.25 29.9445 1432.65 29.6997C1432.05 29.4549 1431.58 29.0747 1431.25 28.5591C1430.92 28.0435 1430.75 27.3924 1430.76 26.606V14.981ZM1448.34 21.2778L1445.3 21.4653C1445.25 21.2049 1445.13 20.9705 1444.96 20.7622C1444.79 20.5487 1444.56 20.3794 1444.28 20.2544C1444.01 20.1242 1443.68 20.0591 1443.29 20.0591C1442.77 20.0591 1442.34 20.1685 1441.99 20.3872C1441.63 20.6007 1441.45 20.8872 1441.45 21.2466C1441.45 21.533 1441.57 21.7752 1441.8 21.9731C1442.03 22.1711 1442.42 22.3299 1442.98 22.4497L1445.15 22.8872C1446.32 23.1268 1447.19 23.5122 1447.76 24.0435C1448.33 24.5747 1448.62 25.2726 1448.62 26.1372C1448.62 26.9237 1448.39 27.6138 1447.92 28.2075C1447.46 28.8013 1446.83 29.2648 1446.03 29.5981C1445.24 29.9263 1444.32 30.0903 1443.27 30.0903C1441.69 30.0903 1440.42 29.7596 1439.48 29.0981C1438.54 28.4315 1437.99 27.5252 1437.83 26.3794L1441.1 26.2075C1441.2 26.6919 1441.44 27.0617 1441.82 27.3169C1442.2 27.5669 1442.69 27.6919 1443.28 27.6919C1443.87 27.6919 1444.33 27.5799 1444.69 27.356C1445.05 27.1268 1445.23 26.8325 1445.24 26.4731C1445.23 26.1711 1445.1 25.9237 1444.85 25.731C1444.6 25.533 1444.22 25.382 1443.7 25.2778L1441.62 24.8638C1440.45 24.6294 1439.57 24.2231 1439 23.645C1438.43 23.0669 1438.15 22.3299 1438.15 21.4341C1438.15 20.6632 1438.36 19.9992 1438.77 19.4419C1439.2 18.8846 1439.79 18.4549 1440.55 18.1528C1441.31 17.8507 1442.21 17.6997 1443.24 17.6997C1444.75 17.6997 1445.94 18.02 1446.81 18.6606C1447.69 19.3013 1448.2 20.1737 1448.34 21.2778Z" fill="black"/>
<path d="M1508.52 18.4575C1508.46 17.8273 1508.19 17.3377 1507.72 16.9888C1507.24 16.6398 1506.6 16.4653 1505.79 16.4653C1505.24 16.4653 1504.77 16.5435 1504.39 16.6997C1504.01 16.8507 1503.72 17.0617 1503.51 17.3325C1503.32 17.6034 1503.22 17.9106 1503.22 18.2544C1503.21 18.5409 1503.27 18.7909 1503.4 19.0044C1503.53 19.2179 1503.72 19.4028 1503.95 19.5591C1504.19 19.7101 1504.46 19.8429 1504.76 19.9575C1505.07 20.0669 1505.4 20.1606 1505.75 20.2388L1507.19 20.5825C1507.88 20.7388 1508.52 20.9471 1509.11 21.2075C1509.69 21.4679 1510.2 21.7882 1510.62 22.1685C1511.05 22.5487 1511.38 22.9966 1511.62 23.5122C1511.86 24.0278 1511.98 24.619 1511.98 25.2856C1511.98 26.2648 1511.73 27.1138 1511.23 27.8325C1510.74 28.5461 1510.04 29.1007 1509.11 29.4966C1508.19 29.8872 1507.07 30.0825 1505.77 30.0825C1504.48 30.0825 1503.36 29.8846 1502.4 29.4888C1501.44 29.0929 1500.7 28.507 1500.16 27.731C1499.63 26.9497 1499.35 25.9836 1499.33 24.8325H1502.6C1502.64 25.369 1502.79 25.8169 1503.06 26.1763C1503.34 26.5304 1503.7 26.7987 1504.16 26.981C1504.63 27.158 1505.15 27.2466 1505.73 27.2466C1506.31 27.2466 1506.8 27.1632 1507.23 26.9966C1507.65 26.8299 1507.98 26.5981 1508.22 26.3013C1508.45 26.0044 1508.57 25.6632 1508.57 25.2778C1508.57 24.9185 1508.46 24.6164 1508.25 24.3716C1508.04 24.1268 1507.73 23.9185 1507.33 23.7466C1506.93 23.5747 1506.43 23.4185 1505.85 23.2778L1504.11 22.8403C1502.76 22.5122 1501.69 21.9992 1500.91 21.3013C1500.13 20.6034 1499.74 19.6632 1499.75 18.481C1499.74 17.5122 1500 16.6659 1500.52 15.9419C1501.05 15.2179 1501.77 14.6528 1502.69 14.2466C1503.6 13.8403 1504.64 13.6372 1505.81 13.6372C1507 13.6372 1508.04 13.8403 1508.92 14.2466C1509.81 14.6528 1510.5 15.2179 1511 15.9419C1511.49 16.6659 1511.75 17.5044 1511.76 18.4575H1508.52ZM1520.58 17.856V20.356H1513.35V17.856H1520.58ZM1514.99 14.981H1518.32V26.1685C1518.32 26.4757 1518.37 26.7153 1518.46 26.8872C1518.56 27.0539 1518.69 27.1711 1518.85 27.2388C1519.02 27.3065 1519.22 27.3403 1519.45 27.3403C1519.6 27.3403 1519.76 27.3273 1519.91 27.3013C1520.07 27.27 1520.19 27.2466 1520.27 27.231L1520.8 29.7075C1520.63 29.7596 1520.4 29.8195 1520.09 29.8872C1519.79 29.9601 1519.43 30.0044 1518.99 30.02C1518.19 30.0513 1517.49 29.9445 1516.88 29.6997C1516.28 29.4549 1515.82 29.0747 1515.49 28.5591C1515.15 28.0435 1514.99 27.3924 1514.99 26.606V14.981ZM1530.44 24.7466V17.856H1533.77V29.856H1530.58V27.6763H1530.45C1530.18 28.3794 1529.73 28.9445 1529.1 29.3716C1528.47 29.7987 1527.71 30.0122 1526.81 30.0122C1526.01 30.0122 1525.3 29.8299 1524.69 29.4653C1524.08 29.1007 1523.61 28.5825 1523.26 27.9106C1522.92 27.2388 1522.75 26.4341 1522.75 25.4966V17.856H1526.08V24.9028C1526.08 25.6112 1526.27 26.1711 1526.65 26.5825C1527.02 26.994 1527.52 27.1997 1528.15 27.1997C1528.55 27.1997 1528.93 27.1086 1529.28 26.9263C1529.63 26.7388 1529.91 26.4627 1530.12 26.0981C1530.34 25.7336 1530.45 25.283 1530.44 24.7466ZM1540.85 30.0513C1539.94 30.0513 1539.12 29.8169 1538.38 29.3481C1537.64 28.8742 1537.06 28.1789 1536.63 27.2622C1536.2 26.3403 1535.99 25.2101 1535.99 23.8716C1535.99 22.4966 1536.21 21.3534 1536.65 20.4419C1537.09 19.5252 1537.68 18.8403 1538.42 18.3872C1539.16 17.9289 1539.97 17.6997 1540.85 17.6997C1541.52 17.6997 1542.08 17.8143 1542.53 18.0435C1542.98 18.2674 1543.34 18.5487 1543.62 18.8872C1543.9 19.2205 1544.11 19.5487 1544.26 19.8716H1544.36V13.856H1547.68V29.856H1544.4V27.9341H1544.26C1544.1 28.2674 1543.88 28.5981 1543.6 28.9263C1543.32 29.2492 1542.95 29.5174 1542.49 29.731C1542.05 29.9445 1541.5 30.0513 1540.85 30.0513ZM1541.91 27.4028C1542.45 27.4028 1542.9 27.257 1543.27 26.9653C1543.64 26.6685 1543.93 26.2544 1544.13 25.7231C1544.33 25.1919 1544.43 24.5695 1544.43 23.856C1544.43 23.1424 1544.33 22.5226 1544.14 21.9966C1543.94 21.4705 1543.65 21.0643 1543.28 20.7778C1542.9 20.4914 1542.45 20.3481 1541.91 20.3481C1541.36 20.3481 1540.9 20.4966 1540.53 20.7935C1540.15 21.0903 1539.87 21.5018 1539.67 22.0278C1539.48 22.5539 1539.39 23.1632 1539.39 23.856C1539.39 24.5539 1539.48 25.1711 1539.67 25.7075C1539.87 26.2388 1540.16 26.6554 1540.53 26.9575C1540.9 27.2544 1541.36 27.4028 1541.91 27.4028ZM1550.42 29.856V17.856H1553.75V29.856H1550.42ZM1552.09 16.3091C1551.6 16.3091 1551.17 16.145 1550.82 15.8169C1550.47 15.4836 1550.29 15.0851 1550.29 14.6216C1550.29 14.1632 1550.47 13.77 1550.82 13.4419C1551.17 13.1086 1551.6 12.9419 1552.09 12.9419C1552.59 12.9419 1553.01 13.1086 1553.36 13.4419C1553.71 13.77 1553.89 14.1632 1553.89 14.6216C1553.89 15.0851 1553.71 15.4836 1553.36 15.8169C1553.01 16.145 1552.59 16.3091 1552.09 16.3091ZM1561.88 30.0903C1560.65 30.0903 1559.58 29.8403 1558.69 29.3403C1557.81 28.8351 1557.13 28.1216 1556.65 27.1997C1556.17 26.2726 1555.93 25.1763 1555.93 23.9106C1555.93 22.6763 1556.17 21.5929 1556.65 20.6606C1557.13 19.7284 1557.8 19.0018 1558.67 18.481C1559.55 17.9601 1560.57 17.6997 1561.75 17.6997C1562.54 17.6997 1563.28 17.8273 1563.96 18.0825C1564.65 18.3325 1565.25 18.7101 1565.76 19.2153C1566.27 19.7205 1566.67 20.356 1566.96 21.1216C1567.25 21.882 1567.39 22.7726 1567.39 23.7935V24.7075H1557.26V22.645H1564.26C1564.26 22.1659 1564.15 21.7414 1563.94 21.3716C1563.74 21.0018 1563.45 20.7127 1563.08 20.5044C1562.71 20.2909 1562.29 20.1841 1561.8 20.1841C1561.3 20.1841 1560.85 20.3013 1560.46 20.5356C1560.07 20.7648 1559.77 21.0747 1559.55 21.4653C1559.33 21.8507 1559.22 22.2804 1559.22 22.7544V24.7153C1559.22 25.3091 1559.33 25.8221 1559.55 26.2544C1559.77 26.6867 1560.08 27.02 1560.49 27.2544C1560.9 27.4888 1561.38 27.606 1561.94 27.606C1562.31 27.606 1562.64 27.5539 1562.95 27.4497C1563.26 27.3455 1563.52 27.1893 1563.74 26.981C1563.96 26.7726 1564.13 26.5174 1564.24 26.2153L1567.32 26.4185C1567.16 27.158 1566.84 27.8039 1566.36 28.356C1565.88 28.9028 1565.26 29.3299 1564.5 29.6372C1563.74 29.9393 1562.87 30.0903 1561.88 30.0903ZM1579.55 21.2778L1576.5 21.4653C1576.45 21.2049 1576.33 20.9705 1576.16 20.7622C1575.99 20.5487 1575.76 20.3794 1575.48 20.2544C1575.21 20.1242 1574.88 20.0591 1574.49 20.0591C1573.98 20.0591 1573.54 20.1685 1573.19 20.3872C1572.83 20.6007 1572.66 20.8872 1572.66 21.2466C1572.66 21.533 1572.77 21.7752 1573 21.9731C1573.23 22.1711 1573.62 22.3299 1574.18 22.4497L1576.35 22.8872C1577.52 23.1268 1578.39 23.5122 1578.96 24.0435C1579.53 24.5747 1579.82 25.2726 1579.82 26.1372C1579.82 26.9237 1579.59 27.6138 1579.12 28.2075C1578.67 28.8013 1578.04 29.2648 1577.23 29.5981C1576.44 29.9263 1575.52 30.0903 1574.48 30.0903C1572.89 30.0903 1571.62 29.7596 1570.68 29.0981C1569.74 28.4315 1569.19 27.5252 1569.03 26.3794L1572.3 26.2075C1572.4 26.6919 1572.64 27.0617 1573.02 27.3169C1573.4 27.5669 1573.89 27.6919 1574.48 27.6919C1575.07 27.6919 1575.54 27.5799 1575.89 27.356C1576.25 27.1268 1576.43 26.8325 1576.44 26.4731C1576.43 26.1711 1576.3 25.9237 1576.05 25.731C1575.8 25.533 1575.42 25.382 1574.9 25.2778L1572.82 24.8638C1571.65 24.6294 1570.77 24.2231 1570.2 23.645C1569.63 23.0669 1569.35 22.3299 1569.35 21.4341C1569.35 20.6632 1569.56 19.9992 1569.98 19.4419C1570.4 18.8846 1570.99 18.4549 1571.75 18.1528C1572.51 17.8507 1573.41 17.6997 1574.44 17.6997C1575.95 17.6997 1577.14 18.02 1578.01 18.6606C1578.89 19.3013 1579.4 20.1737 1579.55 21.2778Z" fill="black"/>
<path d="M1631.84 29.856V13.856H1642.44V16.645H1635.23V20.4575H1641.73V23.2466H1635.23V29.856H1631.84ZM1645.47 29.856H1641.85L1647.37 13.856H1651.73L1657.24 29.856H1653.62L1649.61 17.5122H1649.49L1645.47 29.856ZM1645.24 23.5669H1653.81V26.2075H1645.24V23.5669ZM1664.46 24.2935H1667.33L1668.78 26.1528L1670.2 27.8091L1672.88 31.1685H1669.72L1667.88 28.9028L1666.93 27.5591L1664.46 24.2935ZM1673.12 21.856C1673.12 23.6007 1672.79 25.0851 1672.13 26.3091C1671.47 27.533 1670.58 28.4679 1669.44 29.1138C1668.31 29.7544 1667.04 30.0747 1665.63 30.0747C1664.21 30.0747 1662.93 29.7518 1661.8 29.106C1660.67 28.4601 1659.78 27.5252 1659.12 26.3013C1658.47 25.0773 1658.14 23.5955 1658.14 21.856C1658.14 20.1112 1658.47 18.6268 1659.12 17.4028C1659.78 16.1789 1660.67 15.2466 1661.8 14.606C1662.93 13.9601 1664.21 13.6372 1665.63 13.6372C1667.04 13.6372 1668.31 13.9601 1669.44 14.606C1670.58 15.2466 1671.47 16.1789 1672.13 17.4028C1672.79 18.6268 1673.12 20.1112 1673.12 21.856ZM1669.69 21.856C1669.69 20.7257 1669.52 19.7726 1669.18 18.9966C1668.85 18.2205 1668.38 17.632 1667.77 17.231C1667.16 16.8299 1666.45 16.6294 1665.63 16.6294C1664.81 16.6294 1664.1 16.8299 1663.49 17.231C1662.88 17.632 1662.41 18.2205 1662.07 18.9966C1661.73 19.7726 1661.57 20.7257 1661.57 21.856C1661.57 22.9862 1661.73 23.9393 1662.07 24.7153C1662.41 25.4914 1662.88 26.0799 1663.49 26.481C1664.1 26.882 1664.81 27.0825 1665.63 27.0825C1666.45 27.0825 1667.16 26.882 1667.77 26.481C1668.38 26.0799 1668.85 25.4914 1669.18 24.7153C1669.52 23.9393 1669.69 22.9862 1669.69 21.856Z" fill="black"/>
</svg>
